{"title":"The Future 2011 LIMITED DVDRip XviD AMIABLE","uid":6825821,"size":735029269,"categoryP":"video","categoryS":"movies","magnet":"?xt=urn:btih:c0cd78602539dfa241a4422a1a5ed874f1d215bf&amp;dn=The+Future+2011+LIMITED+DVDRip+XviD+AMIABLE&amp;tr=udp%3A%2F%2Ftracker.openbittorrent.com%3A80&amp;tr=udp%3A%2F%2Fopen.demonii.com%3A1337&amp;tr=udp%3A%2F%2Ftracker.coppersurfer.tk%3A6969&amp;tr=udp%3A%2F%2Fexodus.desync.com%3A6969","seeders":1,"leechers":1,"uploader":"HeroMaster","files":-1,"time":1321558740,"description":"The Future 2011 LIMITED DVDRip XviD AMIABLE\n\n\nInformation:\n\n\nTitle: The Future\nYear: 2011\nRuntime: 91 mins\nVotes: 930\nTop 250: 0\nRating: 6.5\nLanguage: English\nAll Genres: Drama &lt;a href=&quot;\nhttp://www.imdb.com/title/tt1235170/&quot; rel=&quot;nofollow&quot; target=&quot;_NEW&quot;&gt;\nhttp://www.imdb.com/title/tt1235170/&lt;/a&gt;\n\n\nPlot Outline:\n\n\nWhen a couple decides to adopt a stray cat their perspective on life changes radically, literally altering the course of time and space and testing their faith in each other and themselves.\n\n\nDirector: Miranda July\nWriting By: Miranda July\nProduced By: Aaron Beckum Gina Kwon Verona Meier Gerhard Meixner Lissi Muschol Roman Paul Mary Prendergast Rod Smith Sue Bruce Smith Chris Stinson\nMusic: Jon Brion\n\n\nCast:\n\n\nMiranda July as Sophie / Voice of Paw-Paw\nHamish Linklater as Jason\nDavid Warshofsky as Marshall\nIsabella Acres as Gabriella\nJoe Putterlik as Joe\nAngela Trimbur as Dance Studio Receptionist\nMary Passeri as Animal Shelter Receptionist\nKathleen Gati as Dr. Straus\nClement von Franckenstein as Alain First Solicitation\nTonita Castro as Second Solicitation\n\n\nFormat : AVI\nFormat/Info : Audio Video Interleave\nFile size : 700 MiB\nDuration : 1h 30mn\nOverall bit rate : 1 078 Kbps\nWriting application : Nandub v1.0rc2\nWriting library : Nandub build 1853/release\n\nVideo\nID : 0\nFormat : MPEG-4 Visual\nFormat profile : Advanced Simple@L5\nFormat settings, BVOP : 1\nFormat settings, QPel : No\nFormat settings, GMC : No warppoints\nFormat settings, Matrix : Default (H.263)\nMuxing mode : Packed bitstream\nCodec ID : XVID\nCodec ID/Hint : XviD\nDuration : 1h 30mn\nBit rate : 933 Kbps\nWidth : 624 pixels\nHeight : 352 pixels\nDisplay aspect ratio : 16:9\nFrame rate : 23.976 fps\nColor space : YUV\nChroma subsampling : 4:2:0\nBit depth : 8 bits\nScan type : Progressive\nCompression mode : Lossy\nBits/(Pixel*Frame) : 0.177\nStream size : 605 MiB (86%)\nWriting library : XviD 64\n\nAudio\nID : 1\nFormat : MPEG Audio\nFormat version : Version 1\nFormat profile : Layer 3\nMode : Joint stereo\nMode extension : MS Stereo\nCodec ID : 55\nCodec ID/Hint : MP3\nDuration : 1h 30mn\nBit rate mode : Constant\nBit rate : 32.0 Kbps\nChannel(s) : 2 channels\nSampling rate : 48.0 KHz\nCompression mode : Lossy\nDelay relative to video : 8ms\nStream size : 86.2 MiB (12%)\nAlignment : Aligned on interleaves\nInterleave, duration : 24 ms (0.58 video frame)\nInterleave, preload duration : 138 ms\nWriting library : LAME3.96.\n\n\nPoster:\n\n &lt;a href=&quot;\nhttp://i.imgur.com/XN8n8.jpg&quot; rel=&quot;nofollow&quot; target=&quot;_NEW&quot;&gt;\nhttp://i.imgur.com/XN8n8.jpg&lt;/a&gt;\n\n\nScreenshots:\n\n &lt;a href=&quot;\nhttp://i.imgur.com/5XLeP.jpg&quot; rel=&quot;nofollow&quot; target=&quot;_NEW&quot;&gt;\nhttp://i.imgur.com/5XLeP.jpg&lt;/a&gt;\n\n\nENJOY!","torrent":{"xt":"urn:btih:c0cd78602539dfa241a4422a1a5ed874f1d215bf","amp;dn":"The+Future+2011+LIMITED+DVDRip+XviD+AMIABLE","amp;tr":["udp%3A%2F%2Ftracker.openbittorrent.com%3A80","udp%3A%2F%2Fopen.demonii.com%3A1337","udp%3A%2F%2Ftracker.coppersurfer.tk%3A6969","udp%3A%2F%2Fexodus.desync.com%3A6969"],"infoHash":"c0cd78602539dfa241a4422a1a5ed874f1d215bf","infoHashBuffer":{"type":"Buffer","data":[192,205,120,96,37,57,223,162,65,164,66,42,26,94,216,116,241,210,21,191]},"announce":[],"urlList":[]}}